# xmcd CD database file
#
# Track frame offsets:
#	150
#	22470
#	39822
#
# Disc length: 825 seconds
#
# Revision: 0
# Processed by: cddbd v1.5PL3 Copyright (c) Steve Scherf et al.
# Submitted via: CDex 1.51
#
DISCID=1e033703
DTITLE=田村英里子 - 最後に教えて
DYEAR=1992
DGENRE=Pop
TTITLE0=最後に教えて
TTITLE1=I LOVE ME
TTITLE2=最後に教えて（オリジナル・カラオケ）
EXTD=YEAR: 1992
EXTT0=
EXTT1=
EXTT2=
PLAYORDER=
